HIERARCHY
ROOT ui
{
	 OFFSET 0 0 0
	 CHANNELS 3 XPosition YPosition Z Position
	 EndSite
	 {
	 OFFSET 0 -1 0
	 }
}
ROOT li
{
	 OFFSET 0 0 0
	 CHANNELS 3 XPosition YPosition Z Position
	 EndSite
	 {
	 OFFSET 0 -1 0
	 }
}
ROOT ul
{
	 OFFSET 0 0 0
	 CHANNELS 3 XPosition YPosition Z Position
	 EndSite
	 {
	 OFFSET 0 -1 0
	 }
}
ROOT ll
{
	 OFFSET 0 0 0
	 CHANNELS 3 XPosition YPosition Z Position
	 EndSite
	 {
	 OFFSET 0 -1 0
	 }
}
ROOT tt
{
	 OFFSET 0 0 0
	 CHANNELS 3 XPosition YPosition Z Position
	 EndSite
	 {
	 OFFSET 0 -1 0
	 }
}
ROOT tb
{
	 OFFSET 0 0 0
	 CHANNELS 3 XPosition YPosition Z Position
	 EndSite
	 {
	 OFFSET 0 -1 0
	 }
}
ROOT td
{
	 OFFSET 0 0 0
	 CHANNELS 3 XPosition YPosition Z Position
	 EndSite
	 {
	 OFFSET 0 -1 0
	 }
}
ROOT v
{
	 OFFSET 0 0 0
	 CHANNELS 3 XPosition YPosition Z Position
	 EndSite
	 {
	 OFFSET 0 -1 0
	 }
}
ROOT bn
{
	 OFFSET 0 0 0
	 CHANNELS 3 XPosition YPosition Z Position
	 EndSite
	 {
	 OFFSET 0 -1 0
	 }
}
MOTION
Frames: 13
Frame Time: 0.002
-0.0021907010078430177	-7.902960181236267E-4	0		0.4975971984863281	-2.410141357421875	0		-1.1004681396484375	0.05783389282226563	0		-0.78891357421875	-2.6478701171875	0		1.5141270751953124	-0.69242333984375	0		3.200276611328125	-0.13134478759765625	0		4.716650390625	0.09511422729492187	0		5.61182373046875	0.11887096405029297	0		-0.3733421630859375	5.898083984375	0		
0.0019685319662094115	-0.00555935287475586	0		0.4547661437988281	-2.413243896484375	0		-1.107165283203125	0.06322452163696289	0		-0.78969287109375	-2.647565673828125	0		1.5133553466796874	-0.6921276245117187	0		3.1796083984375	-0.12377177429199218	0		4.71508056640625	0.10941043853759766	0		5.61127490234375	0.11935591888427734	0		-0.38824365234375	5.88758740234375	0		
0.021264833450317384	-5.462089776992798E-4	0		0.5079339294433594	-2.4167158203125	0		-1.0920247802734375	0.05730086898803711	0		-0.823403564453125	-2.641794677734375	0		1.5184932861328124	-0.6979212036132812	0		3.175764404296875	-0.12844515991210936	0		4.70920947265625	0.10275853729248047	0		5.61782373046875	0.11439175415039063	0		-0.4079301452636719	5.89215771484375	0		
0.006529759883880615	0.0019466429948806763	0		0.4681875	-2.413869873046875	0		-1.159668701171875	0.06655397033691406	0		-0.819113037109375	-2.636567626953125	0		1.5268658447265624	-0.68776513671875	0		3.1960107421875	-0.12746858215332033	0		4.71252978515625	0.10896778869628906	0		5.61948828125	0.12688011169433594	0		-0.3915632934570312	5.8992109375	0		
0.027722015380859374	-0.0020775110721588134	0		0.5005898742675782	-2.402055419921875	0		-1.0954234619140626	0.06592504119873047	0		-0.8239220581054687	-2.639216064453125	0		1.51411376953125	-0.6873159790039063	0		3.177320068359375	-0.12294583129882812	0		4.71279638671875	0.11020980834960938	0		5.6154892578125	0.14473533630371094	0		-0.3752872009277344	5.89826025390625	0		
-0.0319703197479248	0.0010458509922027588	0		0.4438498229980469	-2.400978271484375	0		-1.1001920166015624	0.06327403259277344	0		-0.790744384765625	-2.644410400390625	0		1.5103248291015625	-0.691001708984375	0		3.173521240234375	-0.12764458465576173	0		4.7120703125	0.1104556884765625	0		5.61204541015625	0.1331395263671875	0		-0.37596749877929686	5.89854638671875	0		
-0.0017457820177078248	-0.004118673801422119	0		0.5028937072753906	-2.417559326171875	0		-1.1049490966796875	0.05961772918701172	0		-0.8284503784179688	-2.642599365234375	0		1.5096177978515626	-0.6907380981445312	0		3.18261865234375	-0.14153660583496094	0		4.70218603515625	0.09782111358642578	0		5.60862060546875	0.12152525329589844	0		-0.3766172790527344	5.89882666015625	0		
-0.028398399353027345	-0.0024777469635009768	0		0.4523211669921875	-2.408581298828125	0		-1.1775394287109375	0.06592472839355469	0		-0.783320068359375	-2.654976806640625	0		1.514855712890625	-0.6965669555664062	0		3.177048095703125	-0.13422525024414061	0		4.7156015625	0.10384748077392578	0		5.6152431640625	0.11646827697753906	0		-0.4453824462890625	5.8890712890625	0		
0.020067514419555663	0.004085793018341065	0		0.5066498718261718	-2.410107177734375	0		-1.0940906982421874	0.07099935150146484	0		-0.826740966796875	-2.63809375	0		1.520319580078125	-0.6894038696289062	0		3.179489013671875	-0.12903456115722656	0		4.7090595703125	0.11015226745605469	0		5.61700390625	0.12887014770507813	0		-0.363665283203125	5.909166015625	0		
-0.025562149047851562	9.862930178642273E-4	0		0.4790546569824219	-2.409468505859375	0		-1.0987239990234374	0.06732377624511719	0		-0.793415771484375	-2.643314208984375	0		1.5136370849609375	-0.6960731201171875	0		3.18481005859375	-0.13588961791992188	0		4.71439697265625	0.10428388977050781	0		5.610203125	0.13464483642578126	0		-0.4124150390625	5.8941142578125	0		
0.07388550567626953	-0.0021911559104919433	0		0.4925797424316406	-2.4054208984375	0		-1.103279541015625	0.06464048004150391	0		-0.8289016723632813	-2.639557373046875	0		1.5131185302734376	-0.6958324584960938	0		3.19827978515625	-0.1368607940673828	0		4.70898486328125	0.11157259368896484	0		5.60983642578125	0.1350120849609375	0		-0.26065927124023436	5.9091943359375	0		
-0.009504231452941894	0.0022402679920196533	0		0.4740145263671875	-2.412919677734375	0		-1.107777099609375	0.06094879150390625	0		-0.798458740234375	-2.64675048828125	0		1.5096171875	-0.699551025390625	0		3.17488330078125	-0.13330226135253906	0		4.70934423828125	0.09778245544433593	0		5.60952099609375	0.13539070129394531	0		-0.4142850646972656	5.8956298828125	0		
0.024983930587768554	-0.008019792556762695	0		0.458588623046875	-2.41646630859375	0		-1.1800633544921875	0.06721950531005859	0		-0.8208843994140625	-2.6501943359375	0		1.512307373046875	-0.6953580932617187	0		3.179417236328125	-0.1401402130126953	0		4.70796484375	0.09702652740478515	0		5.609259765625	0.13578515625	0		-0.4107100830078125	5.8908134765625	0		
